<svg xmlns="http://www.w3.org/2000/svg" xmlns:xlink="http://www.w3.org/1999/xlink" width="129" height="129" viewBox="0 0 129 129">
  <defs>
    <filter id="Ellipse_4" x="0" y="0" width="129" height="129" filterUnits="userSpaceOnUse">
      <feOffset input="SourceAlpha"/>
      <feGaussianBlur stdDeviation="7.5" result="blur"/>
      <feFlood flood-color="#f45d01" flood-opacity="0.502"/>
      <feComposite operator="in" in2="blur"/>
      <feComposite in="SourceGraphic"/>
    </filter>
  </defs>
  <g id="_Icon" data-name="$ Icon" transform="translate(-738.5 -928.5)">
    <g transform="matrix(1, 0, 0, 1, 738.5, 928.5)" filter="url(#Ellipse_4)">
      <circle id="Ellipse_4-2" data-name="Ellipse 4" cx="42" cy="42" r="42" transform="translate(22.5 22.5)" fill="#ff4e00"/>
    </g>
    <path id="Path_50" data-name="Path 50" d="M16.26,17.17l.44,5.72c-7.2.825-10.725,4.18-10.725,9.625,0,5.775,2.805,9.46,11.99,10.835,5.94.935,7.1,1.925,7.1,3.575,0,1.485-1.485,2.09-4.125,2.09-2.97,0-5.555-1.155-6.27-4.4L5.26,46.65c.495,4.345,3.135,8.525,11.55,9.46l-.55,6.71h7.755l-.55-6.655c8.03-.66,11.55-4.18,11.55-9.845,0-4.95-2.035-9.13-12.76-10.945-6-.99-6.49-2.035-6.49-3.355,0-1.54,1.265-2.31,3.9-2.31,3.19,0,4.235,1.32,4.785,3.9l9.845-1.87c-.6-4.565-3.63-8.03-10.78-8.855l.5-5.72Z" transform="translate(783 953)" fill="#fff"/>
  </g>
</svg>
