<svg xmlns="http://www.w3.org/2000/svg" xmlns:xlink="http://www.w3.org/1999/xlink" width="408" height="533.054" viewBox="0 0 408 533.054">
  <defs>
    <filter id="Path_1" x="0" y="233.054" width="408" height="300" filterUnits="userSpaceOnUse">
      <feOffset input="SourceAlpha"/>
      <feGaussianBlur stdDeviation="17.5" result="blur"/>
      <feFlood flood-color="#87ce00" flood-opacity="0.502"/>
      <feComposite operator="in" in2="blur"/>
      <feComposite in="SourceGraphic"/>
    </filter>
  </defs>
  <g id="Choose_your_meals." data-name="Choose your meals." transform="translate(-132.5 -1361)">
    <g id="Group_16" data-name="Group 16" transform="translate(0 16)">
      <rect id="Rectangle_19" data-name="Rectangle 19" width="303" height="480" rx="20" transform="translate(185 1345)" fill="#87ce00" opacity="0.1"/>
      <g transform="matrix(1, 0, 0, 1, 132.5, 1345)" filter="url(#Path_1)">
        <path id="Path_1-2" data-name="Path 1" d="M303,15.068v164.87c0,8.319-8.954,15.063-20,15.063H20c-11.046,0-20-6.744-20-15.063V25.862C0,14.579,15.852,7.313,29.17,12.481a117.254,117.254,0,0,0,21.485,6.056c44.156,8.022,58.113-15.262,124-16.569,32.384-.642,48.171,4.6,91,0,4.837-.52,9.4-1.1,13.648-1.7C291.617-1.483,303,5.63,303,15.068" transform="translate(52.5 285.55)" fill="#87ce00"/>
      </g>
    </g>
    <path id="Path_50" data-name="Path 50" d="M42.642,36.42a9.548,9.548,0,0,0,9.2-5.845l-4.34-2.52a5.015,5.015,0,0,1-4.865,3.64c-3.115,0-5.18-2.1-5.18-5.95v-3.92c0-3.85,2.065-5.95,5.18-5.95a4.331,4.331,0,0,1,4.55,3.4l4.585-2.38c-1.785-3.92-4.655-5.74-9.135-5.74-6.58,0-10.815,4.55-10.815,12.81S36.063,36.42,42.642,36.42ZM55.278,36h5.18V24.1c0-1.82,1.645-2.695,3.325-2.695,1.89,0,2.555,1.155,2.555,3.5V36h5.18V24.485c0-4.62-2-7.28-5.74-7.28a5.011,5.011,0,0,0-5.11,3.535h-.21V10.1h-5.18Zm28.315.42c5.39,0,8.61-3.71,8.61-9.625s-3.22-9.59-8.61-9.59-8.61,3.675-8.61,9.59S78.2,36.42,83.593,36.42Zm0-4.095c-2.03,0-3.22-1.33-3.22-3.64V24.94c0-2.31,1.19-3.64,3.22-3.64s3.22,1.33,3.22,3.64v3.745C86.813,30.995,85.623,32.325,83.593,32.325Zm19.74,4.095c5.39,0,8.61-3.71,8.61-9.625s-3.22-9.59-8.61-9.59-8.61,3.675-8.61,9.59S97.942,36.42,103.332,36.42Zm0-4.095c-2.03,0-3.22-1.33-3.22-3.64V24.94c0-2.31,1.19-3.64,3.22-3.64s3.22,1.33,3.22,3.64v3.745C106.552,30.995,105.362,32.325,103.332,32.325Zm18.515,4.095c4.725,0,7.875-2.59,7.875-6.125,0-3.185-2.065-5-6.055-5.53l-2.065-.28c-1.505-.21-1.925-.735-1.925-1.715,0-.91.7-1.54,2.45-1.54a6.142,6.142,0,0,1,4.235,1.89l2.975-3.045c-1.855-1.82-3.64-2.87-7.49-2.87-4.375,0-7.14,2.45-7.14,5.985,0,3.325,2.03,5.145,6.195,5.67l2,.245c1.295.175,1.855.63,1.855,1.54,0,1.085-.7,1.75-2.73,1.75a6.389,6.389,0,0,1-4.865-2.345l-3.045,3.08A9.593,9.593,0,0,0,121.847,36.42Zm19.075,0a9.959,9.959,0,0,0,7.7-3.045l-2.59-3.22a5.823,5.823,0,0,1-4.515,2.2c-2.765,0-4.06-1.54-4.06-3.955v-.28h11.795v-1.54c0-4.97-2.45-9.38-8.54-9.38-5.53,0-8.61,3.78-8.61,9.59C132.1,32.675,135.288,36.42,140.923,36.42Zm-.1-15.4c2.065,0,3.08,1.505,3.08,3.745v.315h-6.44V24.8C137.458,22.525,138.753,21.02,140.818,21.02Zm28.91,5.18-1.365,5.32h-.21l-1.33-5.32-2.7-8.575h-5.145l6.44,19.32-.63,2.03h-3.465V43h3.22c3.15,0,4.69-1.33,5.635-4.165l7.07-21.21h-4.83Zm17.325,10.22c5.39,0,8.61-3.71,8.61-9.625s-3.22-9.59-8.61-9.59-8.61,3.675-8.61,9.59S181.662,36.42,187.052,36.42Zm0-4.095c-2.03,0-3.22-1.33-3.22-3.64V24.94c0-2.31,1.19-3.64,3.22-3.64s3.22,1.33,3.22,3.64v3.745C190.272,30.995,189.082,32.325,187.052,32.325ZM210.188,36h5.18V17.625h-5.18V29.56c0,1.75-1.645,2.66-3.255,2.66-1.89,0-2.625-1.26-2.625-3.5V17.625h-5.18v11.55c0,4.62,1.995,7.245,5.74,7.245a4.988,4.988,0,0,0,5.145-3.5h.175Zm15.19,0V25.255c0-2.135,1.47-2.8,4.48-2.8h1.295v-4.83h-.91a4.607,4.607,0,0,0-4.69,3.99h-.175v-3.99H220.2V36ZM83.75,70V58.1A2.777,2.777,0,0,1,86.795,55.4c1.68,0,2.52,1.12,2.52,3.5V70h5.18V58.1A2.759,2.759,0,0,1,97.54,55.4c1.715,0,2.52,1.12,2.52,3.5V70h5.18V58.485c0-4.62-1.96-7.28-5.5-7.28a5.708,5.708,0,0,0-5.6,3.71H94.04a5.083,5.083,0,0,0-5.145-3.71A4.9,4.9,0,0,0,83.96,54.74h-.21V51.625H78.57V70Zm33.775.42a9.959,9.959,0,0,0,7.7-3.045l-2.59-3.22a5.823,5.823,0,0,1-4.515,2.205c-2.765,0-4.06-1.54-4.06-3.955v-.28h11.795v-1.54c0-4.97-2.45-9.38-8.54-9.38-5.53,0-8.61,3.78-8.61,9.59C108.705,66.675,111.89,70.42,117.525,70.42Zm-.105-15.4c2.065,0,3.08,1.505,3.08,3.745v.315h-6.44V58.8C114.06,56.525,115.355,55.02,117.42,55.02ZM145.98,70V65.975h-1.715v-8.05c0-4.34-2.66-6.72-7.84-6.72-3.85,0-5.95,1.33-7.42,3.5l3.08,2.73a4.537,4.537,0,0,1,3.955-2.17c2.17,0,3.045,1.12,3.045,2.9v1.155h-2.9c-4.865,0-7.875,1.855-7.875,5.74,0,3.185,2.03,5.355,5.705,5.355,2.8,0,4.83-1.26,5.39-3.64h.21a3.5,3.5,0,0,0,3.5,3.22Zm-10.045-3.185c-1.54,0-2.415-.63-2.415-1.96V64.33c0-1.33,1.05-2.065,3.045-2.065h2.52v2.17C139.085,66.115,137.65,66.815,135.935,66.815Zm21,3.185V65.975h-2.31V44.1h-5.18V64.96c0,3.255,1.61,5.04,5.145,5.04Zm9.345.42c4.725,0,7.875-2.59,7.875-6.125,0-3.185-2.065-5-6.055-5.53l-2.065-.28c-1.5-.21-1.925-.735-1.925-1.715,0-.91.7-1.54,2.45-1.54a6.142,6.142,0,0,1,4.235,1.89l2.975-3.045c-1.855-1.82-3.64-2.87-7.49-2.87-4.375,0-7.14,2.45-7.14,5.985,0,3.325,2.03,5.145,6.195,5.67l2,.245c1.295.175,1.855.63,1.855,1.54,0,1.085-.7,1.75-2.73,1.75a6.389,6.389,0,0,1-4.865-2.345l-3.045,3.08A9.593,9.593,0,0,0,166.28,70.42Zm14.14-.035c2.1,0,3.08-1.19,3.08-2.8v-.7c0-1.61-.98-2.8-3.08-2.8s-3.08,1.19-3.08,2.8v.7C177.34,69.195,178.32,70.385,180.42,70.385Z" transform="translate(206 1702)" fill="#fff"/>
    <g id="Phone_Graphic" data-name="Phone Graphic" transform="translate(0.5 44.031)">
      <path id="Path_24" data-name="Path 24" d="M182.306,136.994l-78.032,23.749a6.05,6.05,0,0,1-6.557-2.1L1.759,33.973A6.051,6.051,0,0,1,4.771,24.5L81.726.769a6.05,6.05,0,0,1,6.558,2.066l97.034,124.655A6.05,6.05,0,0,1,182.306,136.994Z" transform="translate(242.951 1380.856)" fill="rgba(135,206,0,0.15)"/>
      <path id="Path_24_-_Outline" data-name="Path 24 - Outline" d="M102.512,163.006a8.05,8.05,0,0,1-6.38-3.141L.174,35.193a8.042,8.042,0,0,1,4.007-12.6L81.137-1.142a8.049,8.049,0,0,1,8.726,2.748L186.9,126.261a8.041,8.041,0,0,1-4.009,12.647l-78.032,23.749A8.04,8.04,0,0,1,102.512,163.006ZM83.509,2.5a4.045,4.045,0,0,0-1.193.18L5.36,26.411a4.051,4.051,0,0,0-2.016,6.342L99.3,157.425a4.047,4.047,0,0,0,4.389,1.4l78.033-23.749a4.05,4.05,0,0,0,2.017-6.363L86.706,4.063A4.025,4.025,0,0,0,83.509,2.5Z" transform="translate(242.951 1380.856)" fill="#87ce00"/>
      <g id="Group_20" data-name="Group 20" transform="matrix(0.999, 0.035, -0.035, 0.999, 257.295, 1387.525)">
        <path id="Path_26" data-name="Path 26" d="M74.4,9.895a2.946,2.946,0,0,1,2.37,1.252L92.762,29.584l.031.044a3.5,3.5,0,0,1,.434,3.059,3.113,3.113,0,0,1-1.9,2.016l-62.4,23.5a2.8,2.8,0,0,1-.927.159,2.946,2.946,0,0,1-2.367-1.247L8.355,37.189l-.03-.043a3.5,3.5,0,0,1-.436-3.072,3.106,3.106,0,0,1,1.926-2.02L73.491,10.048A2.8,2.8,0,0,1,74.4,9.895ZM91.175,30.807,75.195,12.379l-.031-.044a.942.942,0,0,0-.761-.44.8.8,0,0,0-.26.044L10.466,33.945a1.129,1.129,0,0,0-.676.749,1.492,1.492,0,0,0,.15,1.269L27.207,55.883l.03.043a.941.941,0,0,0,.76.438.8.8,0,0,0,.257-.043l62.4-23.5a1.132,1.132,0,0,0,.671-.75A1.494,1.494,0,0,0,91.175,30.807Z" transform="translate(-8.646 -10.616)" fill="#87ce00" opacity="0.504"/>
        <path id="Line_3" data-name="Line 3" d="M.172,9.678l-.344-.939L24.942-.469l.344.939Z" transform="translate(31.51 11.005)" fill="#87ce00" opacity="0.5"/>
        <path id="Path_37" data-name="Path 37" d="M.175,10.049l-.35-.937L27.588-1.259l.35.937Z" transform="translate(35.595 17.027)" fill="#87ce00" opacity="0.5"/>
        <path id="Line_5" data-name="Line 5" d="M.183,9.146l-.366-.931L21.881-.465l.366.931Z" transform="translate(40.01 23.823)" fill="#87ce00" opacity="0.5"/>
        <g id="Path_28" data-name="Path 28" opacity="0.752">
          <path id="Path_28-2" data-name="Path 28" d="M47.868,53.877,28.961,60.991c-1.009.406-1.189.519-1.934-.56l-15.7-18.253c-1.624-1.665-1.513-2.307.932-3.035l19.482-6.658Z" transform="translate(-8.651 -15.969)" fill="#87ce00"/>
          <path id="Path_28_-_Outline" data-name="Path 28 - Outline" d="M28.024,61.781c-.614,0-1-.471-1.393-1.044L10.954,42.515c-.844-.867-1.367-1.594-1.179-2.318.2-.751,1.071-1.156,2.327-1.531l19.816-6.772L48.67,54.11l-19.6,7.378A2.879,2.879,0,0,1,28.024,61.781Zm3.532-28.706L12.4,39.622c-1.357.4-1.619.692-1.654.827s.047.467.938,1.38l.021.023L27.424,60.124l.015.022c.3.433.484.634.585.634a2.685,2.685,0,0,0,.667-.22l.095-.038,18.281-6.878Z" transform="translate(-8.651 -15.969)" fill="#87ce00"/>
        </g>
      </g>
      <g id="Group_21" data-name="Group 21" transform="matrix(0.999, 0.035, -0.035, 0.999, 281.295, 1419.525)">
        <path id="Path_26-2" data-name="Path 26" d="M74.4,9.895a2.946,2.946,0,0,1,2.37,1.252L92.762,29.584l.031.044a3.5,3.5,0,0,1,.434,3.059,3.113,3.113,0,0,1-1.9,2.016l-62.4,23.5a2.8,2.8,0,0,1-.927.159,2.946,2.946,0,0,1-2.367-1.247L8.355,37.189l-.03-.043a3.5,3.5,0,0,1-.436-3.072,3.106,3.106,0,0,1,1.926-2.02L73.491,10.048A2.8,2.8,0,0,1,74.4,9.895ZM91.175,30.807,75.195,12.379l-.031-.044a.942.942,0,0,0-.761-.44.8.8,0,0,0-.26.044L10.466,33.945a1.129,1.129,0,0,0-.676.749,1.492,1.492,0,0,0,.15,1.269L27.207,55.883l.03.043a.941.941,0,0,0,.76.438.8.8,0,0,0,.257-.043l62.4-23.5a1.132,1.132,0,0,0,.671-.75A1.494,1.494,0,0,0,91.175,30.807Z" transform="translate(-8.646 -10.616)" fill="#87ce00" opacity="0.504"/>
        <path id="Line_3-2" data-name="Line 3" d="M.172,9.678l-.344-.939L24.942-.469l.344.939Z" transform="translate(31.51 11.005)" fill="#87ce00" opacity="0.5"/>
        <path id="Path_37-2" data-name="Path 37" d="M.175,10.049l-.35-.937L27.588-1.259l.35.937Z" transform="translate(35.595 17.027)" fill="#87ce00" opacity="0.5"/>
        <path id="Line_5-2" data-name="Line 5" d="M.183,9.146l-.366-.931L21.881-.465l.366.931Z" transform="translate(40.01 23.823)" fill="#87ce00" opacity="0.5"/>
        <g id="Path_28-3" data-name="Path 28" opacity="0.752">
          <path id="Path_28-4" data-name="Path 28" d="M47.868,53.877,28.961,60.991c-1.009.406-1.189.519-1.934-.56l-15.7-18.253c-1.624-1.665-1.513-2.307.932-3.035l19.482-6.658Z" transform="translate(-8.651 -15.969)" fill="#87ce00"/>
          <path id="Path_28_-_Outline-2" data-name="Path 28 - Outline" d="M28.024,61.781c-.614,0-1-.471-1.393-1.044L10.954,42.515c-.844-.867-1.367-1.594-1.179-2.318.2-.751,1.071-1.156,2.327-1.531l19.816-6.772L48.67,54.11l-19.6,7.378A2.879,2.879,0,0,1,28.024,61.781Zm3.532-28.706L12.4,39.622c-1.357.4-1.619.692-1.654.827s.047.467.938,1.38l.021.023L27.424,60.124l.015.022c.3.433.484.634.585.634a2.685,2.685,0,0,0,.667-.22l.095-.038,18.281-6.878Z" transform="translate(-8.651 -15.969)" fill="#87ce00"/>
        </g>
      </g>
      <g id="Group_22" data-name="Group 22" transform="matrix(0.999, 0.035, -0.035, 0.999, 306.295, 1452.525)">
        <path id="Path_26-3" data-name="Path 26" d="M74.4,9.895a2.946,2.946,0,0,1,2.37,1.252L92.762,29.584l.031.044a3.5,3.5,0,0,1,.434,3.059,3.113,3.113,0,0,1-1.9,2.016l-62.4,23.5a2.8,2.8,0,0,1-.927.159,2.946,2.946,0,0,1-2.367-1.247L8.355,37.189l-.03-.043a3.5,3.5,0,0,1-.436-3.072,3.106,3.106,0,0,1,1.926-2.02L73.491,10.048A2.8,2.8,0,0,1,74.4,9.895ZM91.175,30.807,75.195,12.379l-.031-.044a.942.942,0,0,0-.761-.44.8.8,0,0,0-.26.044L10.466,33.945a1.129,1.129,0,0,0-.676.749,1.492,1.492,0,0,0,.15,1.269L27.207,55.883l.03.043a.941.941,0,0,0,.76.438.8.8,0,0,0,.257-.043l62.4-23.5a1.132,1.132,0,0,0,.671-.75A1.494,1.494,0,0,0,91.175,30.807Z" transform="translate(-8.646 -10.616)" fill="#87ce00" opacity="0.504"/>
        <path id="Line_3-3" data-name="Line 3" d="M.172,9.678l-.344-.939L24.942-.469l.344.939Z" transform="translate(31.51 11.005)" fill="#87ce00" opacity="0.5"/>
        <path id="Path_37-3" data-name="Path 37" d="M.175,10.049l-.35-.937L27.588-1.259l.35.937Z" transform="translate(35.595 17.027)" fill="#87ce00" opacity="0.5"/>
        <path id="Line_5-3" data-name="Line 5" d="M.183,9.146l-.366-.931L21.881-.465l.366.931Z" transform="translate(40.01 23.823)" fill="#97cc04" opacity="0.5"/>
        <g id="Path_28-5" data-name="Path 28" opacity="0.752">
          <path id="Path_28-6" data-name="Path 28" d="M47.868,53.877,28.961,60.991c-1.009.406-1.189.519-1.934-.56l-15.7-18.253c-1.624-1.665-1.513-2.307.932-3.035l19.482-6.658Z" transform="translate(-8.651 -15.969)" fill="#87ce00"/>
          <path id="Path_28_-_Outline-3" data-name="Path 28 - Outline" d="M28.024,61.781c-.614,0-1-.471-1.393-1.044L10.954,42.515c-.844-.867-1.367-1.594-1.179-2.318.2-.751,1.071-1.156,2.327-1.531l19.816-6.772L48.67,54.11l-19.6,7.378A2.879,2.879,0,0,1,28.024,61.781Zm3.532-28.706L12.4,39.622c-1.357.4-1.619.692-1.654.827s.047.467.938,1.38l.021.023L27.424,60.124l.015.022c.3.433.484.634.585.634a2.685,2.685,0,0,0,.667-.22l.095-.038,18.281-6.878Z" transform="translate(-8.651 -15.969)" fill="#87ce00"/>
        </g>
      </g>
    </g>
  </g>
</svg>
