<svg xmlns="http://www.w3.org/2000/svg" xmlns:xlink="http://www.w3.org/1999/xlink" width="408" height="532.5" viewBox="0 0 408 532.5">
  <defs>
    <filter id="Path_3" x="0" y="232.5" width="408" height="300" filterUnits="userSpaceOnUse">
      <feOffset input="SourceAlpha"/>
      <feGaussianBlur stdDeviation="17.5" result="blur"/>
      <feFlood flood-color="#97cc04" flood-opacity="0.502"/>
      <feComposite operator="in" in2="blur"/>
      <feComposite in="SourceGraphic"/>
    </filter>
  </defs>
  <g id="Cook_and_enjoy." data-name="Cook and enjoy." transform="translate(-826.5 -1361)">
    <g id="Group_17" data-name="Group 17" transform="translate(0 16)">
      <rect id="Rectangle_20" data-name="Rectangle 20" width="303" height="480" rx="20" transform="translate(879 1345)" fill="rgba(135,206,0,0.1)"/>
      <g transform="matrix(1, 0, 0, 1, 826.5, 1345)" filter="url(#Path_3)">
        <path id="Path_3-2" data-name="Path 3" d="M303,15.068v164.87c0,8.319-8.954,15.063-20,15.063H20c-11.046,0-20-6.744-20-15.063V25.862C0,14.579,15.852,7.313,29.17,12.481a117.254,117.254,0,0,0,21.485,6.056c44.156,8.022,58.113-15.262,124-16.569,32.384-.642,48.171,4.6,91,0,4.837-.52,9.4-1.1,13.648-1.7C291.617-1.483,303,5.63,303,15.068" transform="translate(52.5 285)" fill="#87ce00"/>
      </g>
    </g>
    <path id="Path_52" data-name="Path 52" d="M45.178,36.42a9.548,9.548,0,0,0,9.2-5.845l-4.34-2.52a5.015,5.015,0,0,1-4.865,3.64c-3.115,0-5.18-2.1-5.18-5.95v-3.92c0-3.85,2.065-5.95,5.18-5.95a4.331,4.331,0,0,1,4.55,3.4l4.585-2.38c-1.785-3.92-4.655-5.74-9.135-5.74-6.58,0-10.815,4.55-10.815,12.81S38.6,36.42,45.178,36.42Zm20.09,0c5.39,0,8.61-3.71,8.61-9.625s-3.22-9.59-8.61-9.59-8.61,3.675-8.61,9.59S59.878,36.42,65.268,36.42Zm0-4.095c-2.03,0-3.22-1.33-3.22-3.64V24.94c0-2.31,1.19-3.64,3.22-3.64s3.22,1.33,3.22,3.64v3.745C68.488,30.995,67.3,32.325,65.268,32.325Zm19.74,4.095c5.39,0,8.61-3.71,8.61-9.625s-3.22-9.59-8.61-9.59S76.4,20.88,76.4,26.8,79.618,36.42,85.008,36.42Zm0-4.095c-2.03,0-3.22-1.33-3.22-3.64V24.94c0-2.31,1.19-3.64,3.22-3.64s3.22,1.33,3.22,3.64v3.745C88.228,30.995,87.038,32.325,85.008,32.325ZM97.293,36h5.18V30.82l2.31-2.59,4.13,7.77h6.16l-6.825-11.34,6.125-7.035h-5.74L104.958,22l-2.275,3.4h-.21V10.1h-5.18ZM142.2,36V31.975h-1.715v-8.05c0-4.34-2.66-6.72-7.84-6.72-3.85,0-5.95,1.33-7.42,3.5l3.08,2.73a4.537,4.537,0,0,1,3.955-2.17c2.17,0,3.045,1.12,3.045,2.905v1.155h-2.9c-4.865,0-7.875,1.855-7.875,5.74,0,3.185,2.03,5.355,5.705,5.355,2.8,0,4.83-1.26,5.39-3.64h.21a3.5,3.5,0,0,0,3.5,3.22Zm-10.045-3.185c-1.54,0-2.415-.63-2.415-1.96V30.33c0-1.33,1.05-2.065,3.045-2.065h2.52v2.17C135.3,32.115,133.868,32.815,132.152,32.815ZM150.842,36V24.1c0-1.82,1.645-2.695,3.325-2.695,1.89,0,2.555,1.155,2.555,3.5V36h5.18V24.485c0-4.62-1.995-7.28-5.74-7.28a5.011,5.011,0,0,0-5.11,3.535h-.21V17.625h-5.18V36Zm26.95,0h5.18V10.1h-5.18V20.7h-.175a4.976,4.976,0,0,0-4.935-3.5c-4.655,0-7.07,3.36-7.07,9.59s2.415,9.625,7.07,9.625a5.018,5.018,0,0,0,4.935-3.5h.175Zm-3.4-3.78c-1.96,0-3.395-1.505-3.395-3.815V25.22c0-2.31,1.435-3.815,3.395-3.815s3.4,1.015,3.4,2.695v5.425C177.792,31.2,176.357,32.22,174.4,32.22ZM70.132,70.42a9.959,9.959,0,0,0,7.7-3.045l-2.59-3.22a5.823,5.823,0,0,1-4.515,2.205c-2.765,0-4.06-1.54-4.06-3.955v-.28H78.463v-1.54c0-4.97-2.45-9.38-8.54-9.38-5.53,0-8.61,3.78-8.61,9.59C61.313,66.675,64.5,70.42,70.132,70.42Zm-.1-15.4c2.065,0,3.08,1.505,3.08,3.745v.315h-6.44V58.8C66.668,56.525,67.963,55.02,70.028,55.02ZM87.318,70V58.1c0-1.82,1.645-2.695,3.325-2.695,1.89,0,2.555,1.155,2.555,3.5V70h5.18V58.485c0-4.62-1.995-7.28-5.74-7.28a5.011,5.011,0,0,0-5.11,3.535h-.21V51.625h-5.18V70ZM103,72.975h-2.73V77H103c3.6,0,5.18-1.785,5.18-5.04V51.625H103Zm2.59-23.31c2.1,0,3.01-1.085,3.01-2.555v-.77c0-1.47-.91-2.555-3.01-2.555s-3.01,1.085-3.01,2.555v.77C102.578,48.58,103.488,49.665,105.588,49.665ZM120.463,70.42c5.39,0,8.61-3.71,8.61-9.625s-3.22-9.59-8.61-9.59-8.61,3.675-8.61,9.59S115.073,70.42,120.463,70.42Zm0-4.1c-2.03,0-3.22-1.33-3.22-3.64V58.94c0-2.31,1.19-3.64,3.22-3.64s3.22,1.33,3.22,3.64v3.745C123.682,65,122.493,66.325,120.463,66.325ZM140.938,60.2l-1.365,5.32h-.21l-1.33-5.32-2.7-8.575h-5.145l6.44,19.32-.63,2.03h-3.465V77h3.22c3.15,0,4.69-1.33,5.635-4.165l7.07-21.21h-4.83Zm11.585,10.185c2.1,0,3.08-1.19,3.08-2.8v-.7c0-1.61-.98-2.8-3.08-2.8s-3.08,1.19-3.08,2.8v.7C149.443,69.195,150.423,70.385,152.523,70.385Z" transform="translate(929 1702)" fill="#fff"/>
    <g id="Pan_Graphic" data-name="Pan Graphic">
      <path id="Path_46" data-name="Path 46" d="M2.3,0,53.288,2.048l2.45,7.512L2.3,9.088a2.167,2.167,0,0,1-2.3-2V2A2.167,2.167,0,0,1,2.3,0Z" transform="matrix(0.951, -0.309, 0.309, 0.951, 928.442, 1552.401)" fill="#87ce00"/>
      <path id="Path_46_-_Outline" data-name="Path 46 - Outline" d="M2.3-1h.04l51.68,2.075,3.1,9.5L2.3,10.088a3.165,3.165,0,0,1-3.3-3V2A3.166,3.166,0,0,1,2.3-1Zm50.25,4.019L2.285,1A1.194,1.194,0,0,0,1,2V7.088a1.2,1.2,0,0,0,1.3,1h.009l52.044.459Z" transform="matrix(0.951, -0.309, 0.309, 0.951, 928.442, 1552.401)" fill="#87ce00"/>
      <path id="Path_38" data-name="Path 38" d="M139.954,23.979H18.936c-5.559,0-10.508-2.806-12.33-6.991L.11,2.072C-.331,1.058.613,0,1.959,0H156.78c1.34,0,2.284,1.049,1.854,2.061l-6.319,14.857C150.52,21.139,145.548,23.979,139.954,23.979Z" transform="matrix(0.951, -0.309, 0.309, 0.951, 979.579, 1535.786)" fill="rgba(135,206,0,0.5)"/>
      <path id="Path_38_-_Outline" data-name="Path 38 - Outline" d="M139.954,24.979H18.936a16.349,16.349,0,0,1-8.059-2.056,11.925,11.925,0,0,1-5.188-5.536L-.807,2.471A2.264,2.264,0,0,1-.614.292,3.068,3.068,0,0,1,1.959-1H156.78A3.031,3.031,0,0,1,159.348.283a2.266,2.266,0,0,1,.207,2.169l-6.319,14.857C151.284,21.9,145.946,24.979,139.954,24.979ZM1.959,1a1.066,1.066,0,0,0-.9.388.27.27,0,0,0-.032.284l6.5,14.917c1.664,3.822,6.251,6.39,11.413,6.39H139.954a14.332,14.332,0,0,0,7.109-1.816,9.907,9.907,0,0,0,4.332-4.637L157.714,1.67a.271.271,0,0,0-.035-.283,1.068,1.068,0,0,0-.9-.386Z" transform="matrix(0.951, -0.309, 0.309, 0.951, 979.579, 1535.786)" fill="#87ce00"/>
      <path id="Path_39" data-name="Path 39" d="M0,11.554C12.884,2.081,25.711,1.732,28.925,3.484a14,14,0,0,0,7.264,2.2c2.548-.023,3.565-.875,5.768-1.467,6.22-1.672,8.422,2.348,15.168,1.956,4.835-.281,3.837-2.354,10.041-3.423a32.286,32.286,0,0,1,15.6,1.468c4.922,1.628,4.374,2.619,8.044,3.4,6.636,1.41,12.4-.984,14.819-2.024,6.4-2.755,5.757-5.066,9.823-5.533,3.845-.44,4.48,1.621,13.537,3.594,3.84.837,4.527.641,6.758,1.541a23.311,23.311,0,0,1,8.546,6.207" transform="matrix(0.951, -0.309, 0.309, 0.951, 984.166, 1522.307)" fill="rgba(135,206,0,0.15)"/>
      <path id="Path_39_-_Outline" data-name="Path 39 - Outline" d="M.592,12.36-.592,10.748A47.17,47.17,0,0,1,17.891,2.329c4.88-.984,9.4-.876,11.512.276.092.05.195.109.314.177a12.508,12.508,0,0,0,6.462,1.9,8.988,8.988,0,0,0,3.512-.762,20.829,20.829,0,0,1,2.006-.67c3.668-.986,6.136-.124,8.523.71a16.2,16.2,0,0,0,6.847,1.214A7.154,7.154,0,0,0,61.1,3.911,14.611,14.611,0,0,1,67,1.764a33.175,33.175,0,0,1,16.079,1.5A21.035,21.035,0,0,1,87.7,5.336a9.2,9.2,0,0,0,3.316,1.3c6.462,1.373,12.1-1.051,14.216-1.964a18.782,18.782,0,0,0,5.447-3.392,7.559,7.559,0,0,1,4.657-2.216A9.994,9.994,0,0,1,120.877.122,46.9,46.9,0,0,0,129.2,2.677c1.414.308,2.4.474,3.186.608a15.31,15.31,0,0,1,3.734.982,24.137,24.137,0,0,1,8.917,6.468l-1.491,1.332a22.16,22.16,0,0,0-8.174-5.946,13.383,13.383,0,0,0-3.319-.865c-.81-.137-1.818-.308-3.278-.626a48.688,48.688,0,0,1-8.636-2.653c-1.874-.75-2.815-1.126-4.574-.925A5.579,5.579,0,0,0,111.975,2.8a20.794,20.794,0,0,1-5.956,3.709,31.752,31.752,0,0,1-6.012,1.99,22.415,22.415,0,0,1-9.41.094,11.09,11.09,0,0,1-3.911-1.533,19.046,19.046,0,0,0-4.239-1.895A31.243,31.243,0,0,0,67.335,3.735a12.567,12.567,0,0,0-5.2,1.885,9.083,9.083,0,0,1-4.955,1.551A18.108,18.108,0,0,1,49.56,5.85c-2.293-.8-4.273-1.492-7.345-.667a18.909,18.909,0,0,0-1.821.611,10.883,10.883,0,0,1-4.2.89,14.552,14.552,0,0,1-7.472-2.165c-.107-.061-.2-.115-.28-.158a8.475,8.475,0,0,0-3.62-.689,28.766,28.766,0,0,0-6.539.617A45.16,45.16,0,0,0,.592,12.36Z" transform="matrix(0.951, -0.309, 0.309, 0.951, 984.166, 1522.307)" fill="#87ce00"/>
      <path id="Path_40" data-name="Path 40" d="M1.186,25.749a1,1,0,0,1-.966-.743A29.87,29.87,0,0,1-.937,15.131,13.926,13.926,0,0,1,.808,9.186c.058-.1.123-.208.194-.326.652-1.084,1.742-2.9,1.38-4.926A5.939,5.939,0,0,0,.5.723,1,1,0,0,1,.463-.69,1,1,0,0,1,1.877-.723,7.882,7.882,0,0,1,4.351,3.582c.494,2.766-.891,5.07-1.635,6.308-.066.11-.127.211-.18.3C.63,13.467.5,18.277,2.153,24.491a1,1,0,0,1-.967,1.257Z" transform="matrix(0.951, -0.309, 0.309, 0.951, 995.615, 1483.634)" fill="#87ce00"/>
      <path id="Path_41" data-name="Path 41" d="M9.3,13.093c1.268,2.35-2.285,7.1-3.487,6.72-.951-.3.476-3.526-1.576-6.573C2.8,11.1,1.213,11.382.387,9.717-1.431,6.055,3.687-.418,4.766.021c1.114.453-2.511,8.1.756,11.051C6.944,12.356,8.58,11.764,9.3,13.093Z" transform="matrix(0.951, -0.309, 0.309, 0.951, 1061.158, 1462.316)" fill="rgba(135,206,0,0.15)"/>
      <path id="Path_41_-_Outline" data-name="Path 41 - Outline" d="M5.958,20.834a1.486,1.486,0,0,1-.449-.068,1.51,1.51,0,0,1-1.018-1.3,7.537,7.537,0,0,1-.055-1.251A7.323,7.323,0,0,0,3.405,13.8a5.1,5.1,0,0,0-1.881-1.664A4.614,4.614,0,0,1-.509,10.162C-1.88,7.4-.036,3.887.821,2.505A13.63,13.63,0,0,1,2.633.159C3.663-.88,4.276-1,4.648-1a1.306,1.306,0,0,1,.5.1,1.327,1.327,0,0,1,.794,1,2.986,2.986,0,0,1,.035.874,19.553,19.553,0,0,1-.318,1.957c-.453,2.345-1.138,5.888.538,7.4a3.556,3.556,0,0,0,1.621.738,3.285,3.285,0,0,1,2.365,1.55c1.015,1.88-.205,4.311-.777,5.269C9.107,18.379,7.56,20.834,5.958,20.834ZM3.831,1.8c-.151.166-.317.361-.5.59a12.891,12.891,0,0,0-1.789,3.08,4.971,4.971,0,0,0-.264,3.8,2.747,2.747,0,0,0,1.267,1.144,7.032,7.032,0,0,1,2.515,2.264,9.151,9.151,0,0,1,1.372,5.545c0,.071,0,.148,0,.226a5.611,5.611,0,0,0,.472-.5,8.371,8.371,0,0,0,1.261-2.041,2.957,2.957,0,0,0,.249-2.346c-.159-.294-.4-.379-1.111-.565a5.375,5.375,0,0,1-2.455-1.188c-2.514-2.269-1.7-6.48-1.162-9.265C3.735,2.316,3.785,2.056,3.831,1.8Z" transform="matrix(0.951, -0.309, 0.309, 0.951, 1061.158, 1462.316)" fill="#87ce00"/>
      <path id="Path_42" data-name="Path 42" d="M10.857,9.229c-1.26.793-2.84-1.175-4.275-.475-3,1.464.414,11.764-1.128,12.326-1.268.463-6-5.619-5.4-11.851.11-1.151.377-3.952,2.4-5.691A22.11,22.11,0,0,1,5.363,1.845C8.685.016,8.917-.051,9.224.016,11.621.534,12.954,7.908,10.857,9.229Z" transform="matrix(0.951, -0.309, 0.309, 0.951, 1019.674, 1484.072)" fill="rgba(135,206,0,0.15)"/>
      <path id="Path_42_-_Outline" data-name="Path 42 - Outline" d="M9.095-1a1.585,1.585,0,0,1,.34.038c1.821.394,2.888,2.913,3.281,5.138a10.529,10.529,0,0,1,.1,3.291,3.517,3.517,0,0,1-1.42,2.608,2.241,2.241,0,0,1-1.213.346,4.7,4.7,0,0,1-1.785-.475A3.522,3.522,0,0,0,7.263,9.6a.525.525,0,0,0-.242.052c-.234.114-.637.555-.711,2.227a32.465,32.465,0,0,0,.307,4.671c.129,1.148.251,2.231.258,3.076,0,.546.015,2-1.079,2.394a1.432,1.432,0,0,1-.492.085,3.49,3.49,0,0,1-2.346-1.438A16.027,16.027,0,0,1,.11,15.894,14.88,14.88,0,0,1-.944,9.134V9.129A13.59,13.59,0,0,1-.419,6.3,7.5,7.5,0,0,1,1.8,2.78,19.761,19.761,0,0,1,4.881.969C8.022-.761,8.534-1,9.095-1Zm1.082,9.421a.247.247,0,0,0,.148-.038c.4-.252.811-1.653.422-3.859-.358-2.029-1.16-3.289-1.655-3.5-.441.164-1.9.959-3.246,1.7A28.567,28.567,0,0,0,3.1,4.3C1.388,5.771,1.149,8.258,1.047,9.32a13.785,13.785,0,0,0,1.605,7.348,13.214,13.214,0,0,0,1.656,2.506,6.333,6.333,0,0,0,.567.584c0-.149,0-.331-.013-.552-.035-.684-.13-1.533-.232-2.433-.41-3.635-.874-7.754,1.514-8.919A2.528,2.528,0,0,1,7.263,7.6a4.945,4.945,0,0,1,1.9.5A3.384,3.384,0,0,0,10.177,8.421Z" transform="matrix(0.951, -0.309, 0.309, 0.951, 1019.674, 1484.072)" fill="#87ce00"/>
      <path id="Path_43" data-name="Path 43" d="M6.248,9.935c.052,2.377-1.348,3.116-2.009,6.2-.523,2.435,0,3.6-.431,3.735-.871.272-4.2-4.054-3.769-8.545C.2,9.683.692,9.729,2,5.566,3.162,1.888,3.364-.021,3.808,0c.5.025.394,2.5,1.65,6.989C6.054,9.119,6.229,9.1,6.248,9.935Z" transform="matrix(0.951, -0.309, 0.309, 0.951, 1029.117, 1447.459)" fill="rgba(135,206,0,0.15)"/>
      <path id="Path_43_-_Outline" data-name="Path 43 - Outline" d="M3.8-1h.055a1.2,1.2,0,0,1,.966.6A2.237,2.237,0,0,1,5.065.2c.092.346.165.793.266,1.412a43.965,43.965,0,0,0,1.091,5.1c.236.843.4,1.33.521,1.686a4.21,4.21,0,0,1,.305,1.508,6.875,6.875,0,0,1-.954,3.529,11.265,11.265,0,0,0-1.077,2.9,10.512,10.512,0,0,0-.225,2.622,4.686,4.686,0,0,1-.024.79,1.251,1.251,0,0,1-.861,1.068,1.285,1.285,0,0,1-.384.058,2.626,2.626,0,0,1-1.81-1.075,12.037,12.037,0,0,1-2.87-8.577A6.585,6.585,0,0,1-.3,8.926a33.786,33.786,0,0,0,1.349-3.66c.454-1.441.764-2.627.991-3.494.185-.707.319-1.219.455-1.6C2.6-.117,2.916-1,3.8-1ZM3,17.974a12.127,12.127,0,0,1,.264-2.05A13.3,13.3,0,0,1,4.5,12.553a5.048,5.048,0,0,0,.746-2.6,2.321,2.321,0,0,0-.2-.91c-.121-.356-.3-.894-.553-1.788-.4-1.442-.67-2.683-.86-3.7-.183.67-.405,1.444-.678,2.311a36.01,36.01,0,0,1-1.42,3.85,4.643,4.643,0,0,0-.5,1.7,9.572,9.572,0,0,0,1.042,5.031A9.974,9.974,0,0,0,3,17.974Z" transform="matrix(0.951, -0.309, 0.309, 0.951, 1029.117, 1447.459)" fill="#87ce00"/>
      <path id="Path_44" data-name="Path 44" d="M2.736,21.914a1,1,0,0,1-.453-.109A5.483,5.483,0,0,1-.9,18.336c-.457-1.96.731-3.465,1.988-5.058a12.407,12.407,0,0,0,2.435-4.1c.725-2.421.167-5.349-1.66-8.7a1,1,0,0,1,.4-1.357,1,1,0,0,1,1.357.4c2.092,3.838,2.7,7.28,1.82,10.232a14.187,14.187,0,0,1-2.78,4.763c-1.18,1.5-1.837,2.39-1.61,3.366.184.789.906,1.509,2.146,2.141a1,1,0,0,1-.455,1.891Z" transform="matrix(0.951, -0.309, 0.309, 0.951, 1046.676, 1475.473)" fill="#87ce00"/>
      <path id="Path_45" data-name="Path 45" d="M1.945,20.52a1,1,0,0,1-.953-1.3,11.073,11.073,0,0,0,.5-4.6A10.849,10.849,0,0,0,.288,10.839,11.679,11.679,0,0,1-.905,7.33a11.768,11.768,0,0,1,2-7.852,1,1,0,0,1,1.375-.33A1,1,0,0,1,2.8.522a9.852,9.852,0,0,0-1.724,6.52A9.784,9.784,0,0,0,2.1,9.982,12.831,12.831,0,0,1,3.481,14.4,13.059,13.059,0,0,1,2.9,19.824,1,1,0,0,1,1.945,20.52Z" transform="matrix(0.951, -0.309, 0.309, 0.951, 1091.985, 1457.82)" fill="#87ce00"/>
    </g>
  </g>
</svg>
