<svg xmlns="http://www.w3.org/2000/svg" xmlns:xlink="http://www.w3.org/1999/xlink" width="408" height="532.5" viewBox="0 0 408 532.5">
  <defs>
    <filter id="Path_2" x="0" y="232.5" width="408" height="300" filterUnits="userSpaceOnUse">
      <feOffset input="SourceAlpha"/>
      <feGaussianBlur stdDeviation="17.5" result="blur"/>
      <feFlood flood-color="#87ce00" flood-opacity="0.502"/>
      <feComposite operator="in" in2="blur"/>
      <feComposite in="SourceGraphic"/>
    </filter>
  </defs>
  <g id="Unpack_your_box." data-name="Unpack your box." transform="translate(-493.5 -1361)">
    <g id="Group_15" data-name="Group 15" transform="translate(0 42)">
      <rect id="Rectangle_18" data-name="Rectangle 18" width="303" height="480" rx="20" transform="translate(546 1319)" fill="#87ce00" opacity="0.1"/>
      <g transform="matrix(1, 0, 0, 1, 493.5, 1319)" filter="url(#Path_2)">
        <path id="Path_2-2" data-name="Path 2" d="M303,15.068v164.87c0,8.319-8.954,15.063-20,15.063H20c-11.046,0-20-6.744-20-15.063V25.862C0,14.579,15.852,7.313,29.17,12.481a117.254,117.254,0,0,0,21.485,6.056c44.156,8.022,58.113-15.262,124-16.569,32.384-.642,48.171,4.6,91,0,4.837-.52,9.4-1.1,13.648-1.7C291.617-1.483,303,5.63,303,15.068" transform="translate(52.5 285)" fill="#87ce00"/>
      </g>
    </g>
    <path id="Path_51" data-name="Path 51" d="M30.533,11.57V25.99c0,7.21,2.59,10.43,9.59,10.43s9.59-3.22,9.59-10.43V11.57h-5.18V26.55c0,3.43-1.26,5.145-4.41,5.145s-4.41-1.715-4.41-5.145V11.57ZM59.863,36V24.1c0-1.82,1.645-2.695,3.325-2.695,1.89,0,2.555,1.155,2.555,3.5V36h5.18V24.485c0-4.62-1.995-7.28-5.74-7.28a5.011,5.011,0,0,0-5.11,3.535h-.21V17.625h-5.18V36Zm15.68,7h5.18V32.92H80.9a5.018,5.018,0,0,0,4.935,3.5c4.655,0,7.07-3.395,7.07-9.625s-2.415-9.59-7.07-9.59A4.977,4.977,0,0,0,80.9,20.7h-.175v-3.08h-5.18Zm8.575-10.78c-1.96,0-3.395-1.015-3.395-2.7V24.1c0-1.68,1.435-2.695,3.395-2.695s3.4,1.505,3.4,3.815v3.185C87.513,30.715,86.077,32.22,84.118,32.22ZM113.272,36V31.975h-1.715v-8.05c0-4.34-2.66-6.72-7.84-6.72-3.85,0-5.95,1.33-7.42,3.5l3.08,2.73a4.537,4.537,0,0,1,3.955-2.17c2.17,0,3.045,1.12,3.045,2.905v1.155h-2.9c-4.865,0-7.875,1.855-7.875,5.74,0,3.185,2.03,5.355,5.7,5.355,2.8,0,4.83-1.26,5.39-3.64h.21A3.5,3.5,0,0,0,110.4,36Zm-10.045-3.185c-1.54,0-2.415-.63-2.415-1.96V30.33c0-1.33,1.05-2.065,3.045-2.065h2.52v2.17C106.378,32.115,104.943,32.815,103.228,32.815Zm20.93,3.6c3.605,0,6.23-1.575,7.455-5.075l-4.025-1.75c-.525,1.47-1.365,2.73-3.43,2.73-2.1,0-3.185-1.47-3.185-3.78v-3.43c0-2.31,1.085-3.815,3.185-3.815a3.043,3.043,0,0,1,3.15,2.52l4.2-1.82c-1.085-3.01-3.64-4.8-7.35-4.8-5.53,0-8.575,3.71-8.575,9.59S118.628,36.42,124.158,36.42ZM134.833,36h5.18V30.82l2.31-2.59,4.13,7.77h6.16l-6.825-11.34,6.125-7.035h-5.74L142.5,22l-2.275,3.4h-.21V10.1h-5.18Zm36.995-9.8-1.365,5.32h-.21l-1.33-5.32-2.7-8.575h-5.145l6.44,19.32-.63,2.03h-3.465V43h3.22c3.15,0,4.69-1.33,5.635-4.165l7.07-21.21h-4.83Zm17.325,10.22c5.39,0,8.61-3.71,8.61-9.625s-3.22-9.59-8.61-9.59-8.61,3.675-8.61,9.59S183.762,36.42,189.152,36.42Zm0-4.095c-2.03,0-3.22-1.33-3.22-3.64V24.94c0-2.31,1.19-3.64,3.22-3.64s3.22,1.33,3.22,3.64v3.745C192.372,30.995,191.182,32.325,189.152,32.325ZM212.287,36h5.18V17.625h-5.18V29.56c0,1.75-1.645,2.66-3.255,2.66-1.89,0-2.625-1.26-2.625-3.5V17.625h-5.18v11.55c0,4.62,1.995,7.245,5.74,7.245a4.988,4.988,0,0,0,5.145-3.5h.175Zm15.19,0V25.255c0-2.135,1.47-2.8,4.48-2.8h1.295v-4.83h-.91a4.607,4.607,0,0,0-4.69,3.99h-.175v-3.99H222.3V36ZM97.96,70h5.18V66.92h.175a5.018,5.018,0,0,0,4.935,3.5c4.655,0,7.07-3.395,7.07-9.625s-2.415-9.59-7.07-9.59a4.977,4.977,0,0,0-4.935,3.5h-.175V44.1H97.96Zm8.575-3.78c-1.96,0-3.395-1.015-3.395-2.695V58.1c0-1.68,1.435-2.695,3.395-2.695s3.4,1.505,3.4,3.815V62.4C109.93,64.715,108.495,66.22,106.535,66.22Zm20.16,4.2c5.39,0,8.61-3.71,8.61-9.625s-3.22-9.59-8.61-9.59-8.61,3.675-8.61,9.59S121.305,70.42,126.695,70.42Zm0-4.1c-2.03,0-3.22-1.33-3.22-3.64V58.94c0-2.31,1.19-3.64,3.22-3.64s3.22,1.33,3.22,3.64v3.745C129.915,65,128.725,66.325,126.695,66.325ZM142.025,70l3.395-5.985h.14L149.1,70h5.88l-6.125-9.17,6.09-9.205h-5.46L146.155,57.4h-.14l-3.43-5.775h-5.88l5.985,9.03L136.635,70Zm19,.385c2.1,0,3.08-1.19,3.08-2.8v-.7c0-1.61-.98-2.8-3.08-2.8s-3.08,1.19-3.08,2.8v.7C157.95,69.195,158.93,70.385,161.03,70.385Z" transform="translate(567 1702)" fill="#fff"/>
    <g id="Box_Graphic" data-name="Box Graphic" transform="translate(-24.123 111.488)">
      <g id="Path_11" data-name="Path 11" opacity="0.497">
        <path id="Path_11-2" data-name="Path 11" d="M17.3,43.841v83.411a4.451,4.451,0,0,0,3.233,4.28l85.952,24.431a4.454,4.454,0,0,0,2.451-.006l84.313-24.345a4.451,4.451,0,0,0,3.2-4.59l-5.9-83.181L108.8,65.337a4.451,4.451,0,0,1-2.174.022Z" transform="translate(619.292 1318.273)" fill="#87ce00"/>
        <path id="Path_11_-_Outline" data-name="Path 11 - Outline" d="M191,43.2l5.947,83.782a4.951,4.951,0,0,1-3.564,5.106l-84.313,24.345a4.977,4.977,0,0,1-2.726.006L20.4,132.013a4.97,4.97,0,0,1-3.6-4.761V43.206L106.74,64.873a3.969,3.969,0,0,0,1.93-.02ZM107.666,65.983a4.955,4.955,0,0,1-1.16-.138L17.8,44.476v82.776a3.966,3.966,0,0,0,2.87,3.8l85.952,24.431a3.972,3.972,0,0,0,2.175-.005l84.313-24.345a3.951,3.951,0,0,0,2.844-4.074l-5.861-82.579L108.924,65.821A4.95,4.95,0,0,1,107.666,65.983Z" transform="translate(619.292 1318.273)" fill="#87ce00"/>
      </g>
      <g id="Path_13" data-name="Path 13" opacity="0.5">
        <path id="Path_13-2" data-name="Path 13" d="M1.334,69.109,19.373,43.9l90.245,21.617L93.8,94.039a4.448,4.448,0,0,1-4.919,2.172L3.924,76.028a4.45,4.45,0,0,1-2.59-6.92" transform="translate(617.403 1318.28)" fill="#87ce00"/>
        <path id="Path_13_-_Outline" data-name="Path 13 - Outline" d="M89.911,96.832a4.957,4.957,0,0,1-1.145-.135L3.809,76.515a4.95,4.95,0,0,1-2.881-7.7L19.162,43.339l91.212,21.849L94.238,94.282A4.95,4.95,0,0,1,89.911,96.832ZM19.584,44.469,1.741,69.4a3.95,3.95,0,0,0,2.3,6.142L89,95.724A3.945,3.945,0,0,0,93.364,93.8l15.5-27.942Z" transform="translate(617.403 1318.28)" fill="#87ce00"/>
      </g>
      <path id="Line_2" data-name="Line 2" d="M.5,90.109h-1V0h1Z" transform="translate(726.85 1384.038)" fill="#87ce00"/>
      <path id="Path_17" data-name="Path 17" d="M6.872,31.625,18.518,48.561l84.6-21.587L82.157,4.291a4.451,4.451,0,0,0-4.62-1.219L9.187,24.864a4.45,4.45,0,0,0-2.315,6.76" transform="translate(618.031 1313.665)" fill="#87ce00"/>
      <path id="Path_17_-_Outline" data-name="Path 17 - Outline" d="M18.3,49.132,6.46,31.908a4.95,4.95,0,0,1,2.575-7.52L77.385,2.595a4.949,4.949,0,0,1,5.139,1.356l21.529,23.3ZM78.888,3.361a3.942,3.942,0,0,0-1.2.187L9.339,25.341a3.95,3.95,0,0,0-2.055,6L18.732,47.99,102.18,26.7,81.79,4.63A3.963,3.963,0,0,0,78.888,3.361Z" transform="translate(618.031 1313.665)" fill="#87ce00"/>
      <path id="Path_20" data-name="Path 20" d="M93.657,27.412l20.55-25.268A4.45,4.45,0,0,1,118.638.609L187.9,16.22a4.45,4.45,0,0,1,3.226,5.8l-9.183,26.543Z" transform="translate(627.879 1313.399)" fill="#87ce00"/>
      <path id="Path_20_-_Outline" data-name="Path 20 - Outline" d="M182.272,49.151l-89.5-21.439L113.82,1.828A4.948,4.948,0,0,1,118.748.121l69.266,15.611A4.95,4.95,0,0,1,191.6,22.18ZM94.546,27.11l87.077,20.857,9.035-26.115a3.95,3.95,0,0,0-2.864-5.145L118.528,1.1A3.948,3.948,0,0,0,114.6,2.459Z" transform="translate(627.879 1313.399)" fill="#87ce00"/>
      <path id="Path_21" data-name="Path 21" d="M718.41,1335.706l86.676,21.127-82.239,21.285-90.3-21.285Z" transform="translate(3.793 5.649)" fill="#87ce00" opacity="0.152"/>
      <g id="Path_22" data-name="Path 22" opacity="0.5">
        <path id="Path_22-2" data-name="Path 22" d="M24.084,51.324,95.3,29.669A4.432,4.432,0,0,0,97.646,22.9L82.115.574.512,22.6a.016.016,0,0,0-.009.025L19.149,49.6a4.432,4.432,0,0,0,4.935,1.72" transform="translate(726.902 1361.465)" fill="#87ce00"/>
        <path id="Path_22_-_Outline" data-name="Path 22 - Outline" d="M22.8,52.016h0a4.934,4.934,0,0,1-4.057-2.127L.087,22.9a.516.516,0,0,1,.281-.782l.013,0L82.324,0,98.056,22.612a4.932,4.932,0,0,1-2.614,7.535L24.23,51.8A4.928,4.928,0,0,1,22.8,52.016ZM1.3,22.905,19.56,49.32a3.933,3.933,0,0,0,3.235,1.7h0a3.928,3.928,0,0,0,1.144-.17L95.151,29.19a3.932,3.932,0,0,0,2.084-6.007L81.905,1.148Z" transform="translate(726.902 1361.465)" fill="#87ce00"/>
      </g>
    </g>
  </g>
</svg>
